<svg xmlns="http://www.w3.org/2000/svg" width="57.64" height="57.642" viewBox="0 0 57.64 57.642">
  <path id="Path_40" data-name="Path 40" d="M1116.852,5458.866a28.821,28.821,0,1,0,28.82,28.822A28.821,28.821,0,0,0,1116.852,5458.866Zm20.007,15.387c-4.775,3.84-9.3,7.972-13.855,12.058-.427.384-.468.595-.078,1.05a160.238,160.238,0,0,1,9.761,12.793c.4.578.781,1.046.363,1.819a.75.75,0,0,0,.4,1.16.4.4,0,0,1,.178.648,2.839,2.839,0,0,1-1.643,1.464c-.788.191-1.414.833-2.292.831-.227,0-.387.251-.506.462-.16.287-.341.519-.73.379-.072-.026-.228,0-.251.043-.492,1.006-1.432.247-2.106.534a.311.311,0,0,1-.269-.06c-.64-.634-1.609-.761-2.167-1.569a136.664,136.664,0,0,0-8.609-11.176c-.41-.478-.626-.492-1.085-.057q-5.764,5.465-11.492,10.972a7.854,7.854,0,0,1-3.387,1.9,2.467,2.467,0,0,0-.718.441.858.858,0,0,1-1.262-.144,3.474,3.474,0,0,1-1.151-2.35,2.882,2.882,0,0,0-.239-1.664,2.176,2.176,0,0,1,.609-2.569c3.951-4.143,8.062-8.121,12.195-12.08.673-.646.681-.648-.012-1.293a64.392,64.392,0,0,0-8.842-7.081,8.75,8.75,0,0,1-1.973-2.482.16.16,0,0,1-.035-.133c.367-.753-.031-1.459-.1-2.189-.037-.4.125-.78-.255-1.151-.24-.23.207-1.471.577-1.707a1,1,0,0,0,.519-.862.789.789,0,0,1,.763-.787,1.5,1.5,0,0,0,1.249-1.079,2.1,2.1,0,0,1,2.244-1.163,5.117,5.117,0,0,1,3.2,1.15,136.36,136.36,0,0,1,10.708,9.929c.767.792.531.806,1.393.019,3.987-3.629,7.977-7.254,12.162-10.655a12.818,12.818,0,0,1,3.746-2.251c1.387-.5,2.193.082,1.967,1.51-.1.646-.088,1.048.577,1.43s.974,1.256,1.674,1.7c.2.131.086.385-.008.586A4.367,4.367,0,0,1,1136.859,5474.253Z" transform="translate(-1088.032 -5458.866)" fill="#fff"/>
</svg>
