<svg xmlns="http://www.w3.org/2000/svg" width="16.077" height="15.413" viewBox="0 0 16.077 15.413">
  <g id="Group_49" data-name="Group 49" transform="translate(-5506.362 -2818.312)">
    <path id="Path_5" data-name="Path 5" d="M5506.531,2832.707a1.082,1.082,0,0,0-.09-.627.82.82,0,0,1,.23-.968c1.488-1.56,3.036-3.058,4.592-4.549.254-.244.257-.244,0-.488a24.39,24.39,0,0,0-3.33-2.666,3.274,3.274,0,0,1-.743-.935c-.01-.013-.02-.038-.014-.05.139-.283-.011-.549-.037-.824-.014-.152.047-.294-.1-.433-.089-.088.079-.555.219-.644a.379.379,0,0,0,.2-.324.3.3,0,0,1,.287-.3.565.565,0,0,0,.471-.406.789.789,0,0,1,.845-.438,1.926,1.926,0,0,1,1.2.433,51.422,51.422,0,0,1,4.033,3.74c.289.3.2.3.525.007,1.5-1.367,3-2.732,4.58-4.013a4.8,4.8,0,0,1,1.411-.848c.522-.186.825.031.74.568-.038.244-.033.4.217.539s.367.474.631.641c.077.049.032.145,0,.221a1.636,1.636,0,0,1-.458.612c-1.8,1.447-3.5,3-5.218,4.542-.161.144-.176.223-.03.4a60.417,60.417,0,0,1,3.677,4.818c.151.218.293.394.136.685a.283.283,0,0,0,.149.437.149.149,0,0,1,.067.244,1.069,1.069,0,0,1-.619.551c-.3.072-.532.314-.863.313-.085,0-.146.095-.19.174-.061.108-.128.2-.275.143-.027-.01-.086,0-.1.016-.185.379-.539.093-.793.2a.114.114,0,0,1-.1-.023c-.241-.239-.606-.286-.816-.59a51.536,51.536,0,0,0-3.242-4.209c-.155-.18-.236-.185-.409-.021q-2.172,2.058-4.328,4.131a2.958,2.958,0,0,1-1.276.715.9.9,0,0,0-.27.165.324.324,0,0,1-.476-.054A1.315,1.315,0,0,1,5506.531,2832.707Z" fill="#e20613"/>
  </g>
</svg>
