<svg xmlns="http://www.w3.org/2000/svg" width="52.2" height="69.277" viewBox="0 0 52.2 69.277">
  <g id="Group_111" data-name="Group 111" transform="translate(-145.518 -4086.795)">
    <path id="Path_90" data-name="Path 90" d="M176.64,4086.795c1.422.316,2.878.524,4.26.966a18.633,18.633,0,0,1-2.972,36.108,26.178,26.178,0,0,1-3.973.193,1.409,1.409,0,0,1-.964-.666.985.985,0,0,1,.17-.952,1.86,1.86,0,0,1,1.156-.349,17.065,17.065,0,0,0,7.866-1.624,16.623,16.623,0,1,0-23.707-16.436,16.4,16.4,0,0,0,2.218,9.856c.079.137.171.266.244.4a1.023,1.023,0,0,1-.339,1.466.992.992,0,0,1-1.391-.418,17.924,17.924,0,0,1-2.186-4.992,18.69,18.69,0,0,1,15.445-23.387c.354-.052.707-.114,1.061-.17Z" fill="#fff"/>
    <path id="Path_91" data-name="Path 91" d="M195.041,4086.795c.817.432.691,1.218.679,1.974.823.153,2.031-.225,2,1.115-.031,1.238-1.152.9-1.949,1.006-.138.783.237,1.958-1.049,1.961s-.957-1.147-1.056-1.969c-.822-.087-1.883.23-1.985-1.053-.056-.7.417-.929,1.992-1.042.062-.707-.146-1.551.7-1.992Z" fill="#fff"/>
    <path id="Path_92" data-name="Path 92" d="M148.9,4149.027c-.762-1.8-1.494-3.545-2.235-5.283a12.482,12.482,0,0,1-1.019-5.264c.018-.737.392-1.194.991-1.206a1.031,1.031,0,0,1,1.032,1.168,12.131,12.131,0,0,0,1.166,5.23c.661,1.479,1.28,2.977,1.892,4.478a.68.68,0,0,0,.742.5q8.286-.023,16.572,0a.824.824,0,0,0,.8-.452c.56-.87,1.166-1.714,1.793-2.538a10.607,10.607,0,0,0,2.274-6.582c0-2.638.011-5.276,0-7.914-.009-1.575-.884-2.286-2.441-2.029a1.77,1.77,0,0,1-2.19-1.964q-.008-7.746-.005-15.49a1.825,1.825,0,0,0-1.841-2.045,1.732,1.732,0,0,0-1.716,1.435,5.094,5.094,0,0,0-.065.941q-.006,6.259,0,12.514a6.568,6.568,0,0,1-.022.743.991.991,0,0,1-1.927.19,3.561,3.561,0,0,1-.111-.6,1.789,1.789,0,0,0-1.786-1.53,1.764,1.764,0,0,0-1.757,1.636c-.064.943-.017,1.893-.048,2.839-.027.784-.53,1.231-1.2,1.107-.631-.118-.775-.592-.858-1.14a1.745,1.745,0,0,0-1.615-1.626,1.775,1.775,0,0,0-1.95,1.638c-.043.515-.013,1.036-.025,1.554-.018.749-.38,1.2-.974,1.237-.571.033-.945-.342-1.063-1.065a1.8,1.8,0,0,0-1.946-1.733,1.841,1.841,0,0,0-1.678,2.005c-.009,1.15,0,2.3,0,3.45-.005.787-.388,1.26-1.007,1.27s-1.016-.455-1.021-1.242q-.009-1.725,0-3.45a3.852,3.852,0,0,1,5.742-3.587c.078.037.162.062.237.091,1.553-2.187,2.976-2.667,5.326-1.814a4,4,0,0,1,5.607-2.845c.017-.182.047-.351.047-.52,0-2.457.012-4.915-.01-7.373a2.01,2.01,0,0,0-.263-.946,14.669,14.669,0,1,1,14.315,7.223,13.791,13.791,0,0,1-5.559-.448c-.233-.069-.47-.122-.747-.194v7.548a13.993,13.993,0,0,1,1.644.176,3.626,3.626,0,0,1,2.865,3.148c.073,3.535.093,7.078-.076,10.609a10.747,10.747,0,0,1-2.456,5.91c-.6.79-1.174,1.595-1.773,2.41,1.46,1.435,1.161,3.188.9,4.864a2.63,2.63,0,0,1-2.784,2.006q-5.106.01-10.214,0c-2.638,0-5.276.005-7.914,0a2.789,2.789,0,0,1-2.989-3c0-.384.021-.768,0-1.15A3,3,0,0,1,148.9,4149.027Zm27.06-49.61c0,1.427.04,2.69-.017,3.95a.9.9,0,0,0,.734,1.047,4.247,4.247,0,0,1,3.073,4.149,4.953,4.953,0,0,1-3.148,4.557c-.207.078-.415.151-.609.222-.138.834.315,2.048-1.017,2.1-1.353.048-.948-1.189-1.052-1.794l-3.624-1.36c0,1.412.015,2.893-.01,4.374a.644.644,0,0,0,.513.723,12.3,12.3,0,0,0,5.729.626,12.637,12.637,0,1,0-14.075-11.338,29.628,29.628,0,0,0,.555,2.967,3.908,3.908,0,0,1,7.28,1.167,1.316,1.316,0,0,1,1.719-.068,16.736,16.736,0,0,0,1.918.776c0-1.628-.077-3.051.025-4.461.08-1.094-.133-1.854-1.279-2.182a2.711,2.711,0,0,1-.783-.521,3.306,3.306,0,0,1-1.272-3.537,4.091,4.091,0,0,1,3.275-3.376c.124-.778-.261-1.91,1-1.955,1.312-.048.991,1.112,1.084,1.751.849.442,1.627.788,2.339,1.238a.963.963,0,0,1,.241,1.378,1.009,1.009,0,0,1-1.429.239C176.785,4099.882,176.437,4099.69,175.96,4099.417Zm-16.431,54.624q4.461,0,8.921,0c.883,0,1.1-.231,1.115-1.127,0-.338,0-.676,0-1.014,0-1.023-.206-1.23-1.218-1.23h-17.5c-1.116,0-1.269.157-1.27,1.3v.879c0,1,.185,1.193,1.17,1.193Q155.136,4154.043,159.529,4154.041Zm16.464-42.935a2.794,2.794,0,0,0,1.718-2.762,2.141,2.141,0,0,0-1.718-1.94Zm-2.088-11.5a2.108,2.108,0,0,0-1.32,2.205,1.548,1.548,0,0,0,1.32,1.282Z" fill="#fff"/>
    <path id="Path_93" data-name="Path 93" d="M147.516,4101.958c-1.624-.136-2-.341-2-1.063,0-.7.368-.906,1.987-1.058.144-.767-.265-2.023,1.142-1.941,1.2.071.845,1.158.968,1.961.791.109,1.917-.252,1.97,1.1.027.679-.43.888-1.98,1-.11.775.228,1.977-1.082,1.955C147.295,4103.884,147.6,4102.764,147.516,4101.958Z" fill="#fff"/>
    <path id="Path_94" data-name="Path 94" d="M185.645,4130.665c-.1.786.234,1.865-1.052,1.968-.667.053-.882-.385-1.062-1.966-.784-.132-1.983.2-1.93-1.14.046-1.186,1.132-.879,1.915-.965.192-.788-.215-2.015,1.146-1.971,1.262.042.833,1.2,1.016,1.951.787.141,1.961-.238,1.931,1.084C187.58,4130.872,186.464,4130.543,185.645,4130.665Z" fill="#fff"/>
  </g>
</svg>
