<svg xmlns="http://www.w3.org/2000/svg" width="42.808" height="48.105" viewBox="0 0 42.808 48.105">
  <g id="Group_110" data-name="Group 110" transform="translate(-394.584 -7113.767)">
    <path id="Path_73" data-name="Path 73" d="M428.58,7161.872c-.355-.208-.591-.492-.451-.923s.506-.494.912-.49c1.044.012,2.088,0,3.157,0V7115.21H416.761v45.253h.49q3.993,0,7.986,0c.4,0,.759.034.926.469s-.1.7-.4.943H395.032a1.138,1.138,0,0,1-.448-1.058q.01-22.989.006-45.98c0-.879.191-1.067,1.081-1.067H436.3c.89,0,1.082.188,1.082,1.067q0,22.991.006,45.98a1.14,1.14,0,0,1-.449,1.058Zm-30.236-1.423v-.692q0-19.492,0-38.986a2.563,2.563,0,0,1,.056-.65.626.626,0,0,1,.71-.485.635.635,0,0,1,.625.593,5.151,5.151,0,0,1,.016.609v39.589h15.476v-45.213h-15.48c0,.645,0,1.254,0,1.862a.584.584,0,0,1-.495.647,1,1,0,0,1-.7-.206.984.984,0,0,1-.2-.642c-.026-.555-.009-1.112-.009-1.67h-2.309v45.244Zm35.325-45.257v45.24h2.269v-45.24Z" fill="#fff"/>
    <path id="Path_74" data-name="Path 74" d="M425.14,7123.461c0,.313.015.627,0,.939a.7.7,0,0,1-.673.708.682.682,0,0,1-.709-.667q-.039-1.008.005-2.018a.628.628,0,0,1,.687-.629.636.636,0,0,1,.681.635c.025.342.006.688.006,1.032Z" fill="#fff"/>
    <path id="Path_75" data-name="Path 75" d="M425.136,7135c0,.313.018.627,0,.939a.688.688,0,0,1-1.375.008c-.028-.672-.028-1.346,0-2.018a.625.625,0,0,1,.68-.63.662.662,0,0,1,.7.668.747.747,0,0,1,.007.094V7135Z" fill="#fff"/>
    <path id="Path_76" data-name="Path 76" d="M425.132,7140.73c0,.328.022.659-.006.985a.627.627,0,0,1-.685.624.619.619,0,0,1-.682-.626c-.031-.672-.031-1.346,0-2.017a.65.65,0,0,1,.712-.653.666.666,0,0,1,.668.654.749.749,0,0,1,.008.094v.939Z" fill="#fff"/>
    <path id="Path_77" data-name="Path 77" d="M425.136,7152.241c0,.313.019.627,0,.938a.676.676,0,0,1-.7.671.652.652,0,0,1-.675-.65c-.024-.672-.025-1.346,0-2.018a.65.65,0,0,1,.676-.647.692.692,0,0,1,.7.673.719.719,0,0,1,.007.093v.94Z" fill="#fff"/>
    <path id="Path_78" data-name="Path 78" d="M425.132,7146.474c0,.329.021.659,0,.985a.628.628,0,0,1-.682.629.619.619,0,0,1-.686-.623c-.031-.671-.031-1.346-.005-2.017a.679.679,0,0,1,.709-.666.713.713,0,0,1,.676.706c0,.032.005.063.005.094v.892Z" fill="#fff"/>
    <path id="Path_79" data-name="Path 79" d="M425.133,7129.231c0,.328.022.658-.006.984a.639.639,0,0,1-.683.634.629.629,0,0,1-.685-.63c-.031-.671-.031-1.346-.005-2.017a.645.645,0,0,1,.71-.653.656.656,0,0,1,.671.649c0,.031.007.062.007.094q0,.469,0,.939Z" fill="#fff"/>
    <path id="Path_80" data-name="Path 80" d="M425.153,7118.2c-.009.186,0,.375-.03.558a.633.633,0,0,1-.669.588.616.616,0,0,1-.685-.565,6.034,6.034,0,0,1-.013-1.117.637.637,0,0,1,.675-.635.663.663,0,0,1,.7.657,4.868,4.868,0,0,1,0,.513Z" fill="#fff"/>
    <path id="Path_81" data-name="Path 81" d="M425.155,7157.431a5.527,5.527,0,0,1-.035.6.628.628,0,0,1-.679.574.613.613,0,0,1-.674-.576,6.142,6.142,0,0,1-.009-1.118.627.627,0,0,1,.686-.62.635.635,0,0,1,.684.622,4.618,4.618,0,0,1,0,.513Z" fill="#fff"/>
    <path id="Path_82" data-name="Path 82" d="M406.841,7123.435c0-.329-.016-.658,0-.986a.689.689,0,0,1,1.377,0c.028.656.027,1.315,0,1.972a.691.691,0,0,1-.692.688.712.712,0,0,1-.695-.688c0-.031-.006-.063-.006-.094v-.892Z" fill="#fff"/>
    <path id="Path_83" data-name="Path 83" d="M406.843,7134.912c0-.328-.022-.659.006-.985a.627.627,0,0,1,.682-.627.619.619,0,0,1,.685.624c.032.671.032,1.345,0,2.017a.659.659,0,0,1-.709.658.678.678,0,0,1-.671-.7c-.02-.328,0-.657,0-.986Z" fill="#fff"/>
    <path id="Path_84" data-name="Path 84" d="M406.843,7140.662c0-.329-.023-.659.005-.985a.633.633,0,0,1,.681-.632.622.622,0,0,1,.686.625c.031.687.031,1.377,0,2.063a.614.614,0,0,1-.7.606.631.631,0,0,1-.667-.645c-.025-.343-.005-.688-.005-1.032Z" fill="#fff"/>
    <path id="Path_85" data-name="Path 85" d="M408.235,7152.176c0,.313.015.627,0,.939a.713.713,0,0,1-.694.739.7.7,0,0,1-.7-.729q-.028-.939,0-1.878a.7.7,0,0,1,.711-.716.8.8,0,0,1,.686.8c0,.282,0,.564,0,.846Z" fill="#fff"/>
    <path id="Path_86" data-name="Path 86" d="M408.231,7129.2c0,.328.02.658,0,.985a.7.7,0,0,1-.7.676.686.686,0,0,1-.68-.7q-.033-.962,0-1.924a.659.659,0,0,1,.677-.69.691.691,0,0,1,.715.71c0,.031,0,.062,0,.094v.845Z" fill="#fff"/>
    <path id="Path_87" data-name="Path 87" d="M406.84,7146.432c0-.329-.017-.659.005-.986a.659.659,0,0,1,.663-.66.666.666,0,0,1,.713.658c.028.656.027,1.314,0,1.97a.691.691,0,0,1-1.382,0c-.023-.327,0-.657,0-.985Z" fill="#fff"/>
    <path id="Path_88" data-name="Path 88" d="M408.253,7118.175a4.811,4.811,0,0,1-.054.649.686.686,0,0,1-1.344-.068,6.614,6.614,0,0,1-.01-1.072.69.69,0,0,1,1.378-.022,4.36,4.36,0,0,1,0,.512Z" fill="#fff"/>
    <path id="Path_89" data-name="Path 89" d="M408.251,7157.466a4.636,4.636,0,0,1-.046.6.632.632,0,0,1-.708.54.6.6,0,0,1-.637-.564,6.956,6.956,0,0,1-.012-1.118.626.626,0,0,1,.674-.632.638.638,0,0,1,.7.611,4.33,4.33,0,0,1,0,.559Z" fill="#fff"/>
  </g>
</svg>
