<svg xmlns="http://www.w3.org/2000/svg" width="72.659" height="72.634" viewBox="0 0 72.659 72.634">
  <g id="Group_114" data-name="Group 114" transform="translate(-983.089 -4085.116)">
    <path id="Path_108" data-name="Path 108" d="M1055.748,4121.456a36.33,36.33,0,1,1-36.205-36.34A36.232,36.232,0,0,1,1055.748,4121.456Zm-70.587-.08a34.251,34.251,0,1,0,34.11-34.178A34.222,34.222,0,0,0,985.161,4121.376Z" fill="#fff"/>
    <path id="Path_109" data-name="Path 109" d="M1038.8,4123.288a10.411,10.411,0,0,0-8.081.191,10,10,0,0,0-5.072,4.974.854.854,0,0,1-.887.6q-11.2-.026-22.395,0a.879.879,0,0,1-.874-.514,2.873,2.873,0,0,0-.991-1,.978.978,0,0,1-.573-1q.027-6.545,0-13.088a.943.943,0,0,1,.543-1.019,2.5,2.5,0,0,0,1-.988.953.953,0,0,1,1-.571q16.949.018,33.9,0a.947.947,0,0,1,.957.512,8.043,8.043,0,0,0,1.153,1.153c.168.176.388.413.39.624.022,3.278.013,6.556.008,9.834A1.609,1.609,0,0,1,1038.8,4123.288Zm-11.188-3.334a8.2,8.2,0,1,0-8.281,8.237A8.2,8.2,0,0,0,1027.613,4119.954Zm-20.77.039a1.277,1.277,0,0,0-2.552-.07,1.277,1.277,0,1,0,2.552.07Zm27.691-.009a1.287,1.287,0,0,0-1.292-1.283,1.268,1.268,0,0,0-1.26,1.231,1.277,1.277,0,1,0,2.552.052Z" fill="#fff"/>
    <path id="Path_110" data-name="Path 110" d="M1024.757,4130.855l-.211,2.979H997.581c-1.833,0-2.393-.56-2.393-2.39q0-11.539,0-23.08c0-1.64.581-2.216,2.235-2.216H1041.4c1.654,0,2.24.577,2.24,2.212q0,8.93,0,17.859v.7c-.963-.874-1.914-1.71-2.824-2.589a1.141,1.141,0,0,1-.2-.745c-.012-3.682-.022-7.365,0-11.048.006-.811-.146-1.335-1.078-1.5a1.351,1.351,0,0,1-.839-.9c-.155-.837-.633-.967-1.345-.966q-15.326.013-30.652.006c-1.791,0-3.582.012-5.373-.006-.683-.007-1.1.207-1.181.953a1.043,1.043,0,0,1-.993.981.959.959,0,0,0-.946,1.116q.011,7.757,0,15.513c0,.664.262,1.055.942,1.126a1.023,1.023,0,0,1,.995.969c.086.852.627.984,1.327.983q6.243-.009,12.488,0,5.184,0,10.368,0A3.7,3.7,0,0,1,1024.757,4130.855Z" fill="#fff"/>
    <path id="Path_111" data-name="Path 111" d="M1034.971,4124.447a8.573,8.573,0,1,1-8.617,8.476A8.5,8.5,0,0,1,1034.971,4124.447Zm-1.26,8.387a1.49,1.49,0,0,1-.122.27q-.663.674-1.332,1.342c-1.243,1.243-1.4,1.634-.879,2.135.5.481.886.322,2.084-.881.492-.5.976-1,1.435-1.467a1.141,1.141,0,0,1,.236.109c.449.442.908.875,1.339,1.335,1.279,1.364,1.561,1.412,2.12.858.465-.46.542-.777-.861-2.068-.514-.474-1.009-.967-1.593-1.527.855-.824,1.619-1.551,2.373-2.291a.846.846,0,0,0,.088-1.327c-.451-.449-.913-.3-1.325.109-.2.195-.392.392-.589.588l-1.733,1.726c-.782-.8-1.488-1.519-2.189-2.243-.412-.425-.86-.65-1.384-.205-.444.377-.39.886.16,1.433C1032.252,4131.442,1032.985,4132.133,1033.711,4132.834Z" fill="#fff"/>
    <path id="Path_112" data-name="Path 112" d="M1019.415,4126.423a6.389,6.389,0,0,1-6.5-6.539,6.493,6.493,0,0,1,12.985-.009A6.394,6.394,0,0,1,1019.415,4126.423Zm.9-10.944c-.026-.684-.094-1.318-.868-1.351-.889-.038-.859.735-.985,1.295-1.7.38-2.556,1.258-2.617,2.632-.063,1.412.765,2.318,2.624,2.879v1.828h-1.641c-.6,0-1,.279-.98.893.019.566.41.83.976.826.551,0,1.1,0,1.661,0,.072.64.077,1.313.868,1.346.874.037.929-.669.966-1.288,1.707-.349,2.616-1.28,2.656-2.677s-.778-2.286-2.639-2.834V4117.2c.545,0,1.045-.01,1.543,0,.609.017,1.1-.193,1.115-.847s-.458-.891-1.072-.882C1021.42,4115.485,1020.918,4115.479,1020.316,4115.479Z" fill="#fff"/>
    <path id="Path_113" data-name="Path 113" d="M1018.472,4119.073a.86.86,0,0,1-.9-.875c-.032-.569.3-.861.9-1.014Z" fill="#fff"/>
    <path id="Path_114" data-name="Path 114" d="M1020.344,4120.845c.606.121.917.427.894.989a.868.868,0,0,1-.894.886Z" fill="#fff"/>
  </g>
</svg>
