<svg xmlns="http://www.w3.org/2000/svg" width="55.665" height="55.664" viewBox="0 0 55.665 55.664">
  <path id="Path_39" data-name="Path 39" d="M337.128,5459.63a27.832,27.832,0,1,0,27.831,27.832A27.833,27.833,0,0,0,337.128,5459.63Zm20.914,14.715c-2,2.232-4.029,4.437-5.995,6.7a162.08,162.08,0,0,0-13.834,17.764c-.84,1.292-1.587,2.635-2.311,4a3.993,3.993,0,0,1-2.257,1.951,2.89,2.89,0,0,1-1.4.439c-.976-.487-2.36-.464-3.184-1.818a102.758,102.758,0,0,0-9.283-13.238,51.6,51.6,0,0,0-3.736-4.171c-.43-.407-.841-.814-.262-1.429a.476.476,0,0,0-.063-.67c-.138-.16-.451-.266-.326-.531a1.82,1.82,0,0,1,.573-.774c.533-.326,1.131-.543,1.7-.818a1.283,1.283,0,0,1,1.127-.007c.566.24,1.14.462,1.709.7a1.358,1.358,0,0,0,1.239-.13,1.559,1.559,0,0,1,1.666.138c2.4,1.334,3.872,3.632,5.77,5.483.5.487.952,1.022,1.417,1.542.552.62,1,.611,1.568-.056q2.493-2.936,5.225-5.648a102,102,0,0,1,15.994-12.872,1.268,1.268,0,0,1,.669-.287,1.35,1.35,0,0,0,.94-.374,2.549,2.549,0,0,1,1.062-.467c.193-.054.38-.062.485.139a1.77,1.77,0,0,0,1.006.746,1.985,1.985,0,0,1,1.353,2.007A3.218,3.218,0,0,1,358.042,5474.345Z" transform="translate(-309.294 -5459.63)" fill="#fff"/>
</svg>
