<svg xmlns="http://www.w3.org/2000/svg" width="80.104" height="76.944" viewBox="0 0 80.104 76.944">
  <g id="Group_113" data-name="Group 113" transform="translate(-131.566 -4379.513)">
    <path id="Path_99" data-name="Path 99" d="M211.67,4427.081c-.259,1.561-.46,3.134-.788,4.68a30.369,30.369,0,0,1-4.15,10.054,1.577,1.577,0,1,1-2.63-1.678,27.551,27.551,0,0,0,4.158-11.594c1.041-9.125-1.527-17.107-7.949-23.678-13.827-14.147-37.749-9.971-46.064,7.969a28.412,28.412,0,0,0,20.244,39.891,27.856,27.856,0,0,0,20.576-3.673c1.246-.759,2.106-.717,2.671.15s.213,1.749-1.029,2.522a31.614,31.614,0,0,1-45.827-14.815,1.164,1.164,0,0,0-1.311-.857c-3.155.036-6.31.017-9.466.015a7.522,7.522,0,0,1-.859-.029,1.527,1.527,0,0,1-1.421-1.5,1.545,1.545,0,0,1,1.427-1.576,6.409,6.409,0,0,1,.781-.025q4.263,0,8.527,0h.855l-.966-6.014h-2.511c-1.434,0-2.868.015-4.3-.007a1.558,1.558,0,1,1-.008-3.113c1.981-.023,3.963-.008,5.945-.009h.827l.769-6h-.845q-7.275,0-14.55,0a4.577,4.577,0,0,1-1.085-.1,1.532,1.532,0,0,1,.221-3,7.086,7.086,0,0,1,.859-.027c5.215,0,10.43-.01,15.645.012a.919.919,0,0,0,1.006-.7c.734-1.772,1.541-3.513,2.342-5.316-.208-.011-.453-.035-.7-.035-2.66,0-5.32,0-7.979,0-1.134,0-1.858-.616-1.859-1.553s.737-1.569,1.857-1.572c3.39-.007,6.78-.013,10.169.009a1.489,1.489,0,0,0,1.314-.6,31.1,31.1,0,0,1,16.925-10.721c.2-.05.391-.126.615-.2.011-.245.029-.477.03-.708,0-1.067,0-2.133,0-3.208a5.4,5.4,0,0,1-3.838-3.742,5.278,5.278,0,0,1,4.98-6.761c3.831-.089,7.667-.067,11.5-.006a5.3,5.3,0,0,1,1.75,10.275.731.731,0,0,0-.586.823c.038,1.091.012,2.185.012,3.208,1.854.642,3.7,1.13,5.417,1.9,10.858,4.879,17.179,13.247,19.019,25,.1.64.187,1.282.28,1.923Zm-31.652-40.026c1.8,0,3.593.008,5.389,0a2.2,2.2,0,1,0,.05-4.372q-5.429-.026-10.857,0a2.193,2.193,0,1,0,.028,4.37C176.425,4387.065,178.221,4387.055,180.018,4387.055Zm3.767,3.227h-7.467v3.077h7.467Z" fill="#fff"/>
    <path id="Path_100" data-name="Path 100" d="M180.1,4400.591a24.27,24.27,0,1,1-24.3,24.164A24.264,24.264,0,0,1,180.1,4400.591Zm0,3.131a21.139,21.139,0,1,0,21.1,21.237A21.132,21.132,0,0,0,180.1,4403.722Z" fill="#fff"/>
    <path id="Path_101" data-name="Path 101" d="M134.685,4434.483a1.56,1.56,0,1,1-3.119,0,1.56,1.56,0,0,1,3.119,0Z" fill="#fff"/>
    <path id="Path_102" data-name="Path 102" d="M201.294,4447.639a1.546,1.546,0,0,1-.006-3.091,1.546,1.546,0,1,1,.006,3.091Z" fill="#fff"/>
    <path id="Path_103" data-name="Path 103" d="M180.089,4429.72a4.846,4.846,0,0,1-4.608-6.4.914.914,0,0,0-.277-1.135c-.927-.878-1.818-1.794-2.717-2.7-.855-.865-.936-1.774-.231-2.463.681-.665,1.621-.563,2.471.281.926.918,1.854,1.833,2.759,2.772a.738.738,0,0,0,.939.229,4.424,4.424,0,0,1,3.284,0,.745.745,0,0,0,.939-.234q3.47-3.5,6.965-6.972a4.028,4.028,0,0,1,.646-.562,1.531,1.531,0,0,1,1.931.242,1.555,1.555,0,0,1,.161,1.943,4.859,4.859,0,0,1-.576.636q-3.4,3.405-6.808,6.8a.976.976,0,0,0-.311,1.2A4.843,4.843,0,0,1,180.089,4429.72Zm.006-6.579a1.7,1.7,0,0,0-1.752,1.7,1.722,1.722,0,0,0,3.443.06A1.7,1.7,0,0,0,180.1,4423.141Z" fill="#fff"/>
    <path id="Path_104" data-name="Path 104" d="M181.634,4408.88c0,.259.017.519,0,.777a1.549,1.549,0,0,1-3.082.125,8.526,8.526,0,0,1,0-1.862,1.55,1.55,0,0,1,3.087.182c.015.258,0,.518,0,.778Z" fill="#fff"/>
    <path id="Path_105" data-name="Path 105" d="M196.079,4426.43a7.34,7.34,0,0,1-.855-.005,1.534,1.534,0,0,1-1.417-1.644,1.5,1.5,0,0,1,1.517-1.459c.466-.022.934-.017,1.4,0a1.571,1.571,0,0,1,1.634,1.523,1.6,1.6,0,0,1-1.579,1.6c-.232.016-.467,0-.7,0Z" fill="#fff"/>
    <path id="Path_106" data-name="Path 106" d="M181.6,4440.828a6.873,6.873,0,0,1-.006.931,1.552,1.552,0,0,1-3.1-.139c-.025-.491-.022-.985,0-1.477a1.555,1.555,0,0,1,3.109-.092,7.747,7.747,0,0,1,0,.777Z" fill="#fff"/>
    <path id="Path_107" data-name="Path 107" d="M164.1,4423.263c.312.015.628.006.936.05a1.478,1.478,0,0,1,1.291,1.44,1.417,1.417,0,0,1-1.14,1.552,8.3,8.3,0,0,1-2.1.037,1.494,1.494,0,0,1-1.312-1.588,1.538,1.538,0,0,1,1.462-1.458c.285-.025.573,0,.86,0Z" fill="#fff"/>
  </g>
</svg>
