<svg xmlns="http://www.w3.org/2000/svg" width="55.611" height="55.635" viewBox="0 0 55.611 55.635">
  <g id="Group_109" data-name="Group 109" transform="translate(-1486.581 -7104.711)">
    <path id="Path_69" data-name="Path 69" d="M1502.265,7151.179c-1.141,1.15-2.254,2.276-3.371,3.4-.684.685-1.11.68-1.805-.013q-2.377-2.375-4.751-4.753c-.669-.671-.671-1.1-.008-1.763,1.12-1.118,2.245-2.231,3.4-3.378-.208-.351-.4-.676-.593-1a21.548,21.548,0,0,1-2.39-6.057c-.083-.362-.23-.455-.579-.451-1.467.018-2.935.01-4.4.006-.869,0-1.183-.317-1.184-1.19q0-3.448,0-6.9c0-.871.315-1.183,1.189-1.185,1.6,0,3.2,0,4.764,0,.442-1.312.8-2.613,1.317-3.853s1.179-2.423,1.82-3.718c-1.058-1.047-2.183-2.158-3.3-3.273-.716-.712-.711-1.119.012-1.844q2.375-2.379,4.751-4.753c.641-.64,1.088-.643,1.722-.009,1.132,1.133,2.257,2.273,3.324,3.349,1.42-.684,2.748-1.389,4.128-1.968a24.436,24.436,0,0,1,3.031-.944.467.467,0,0,0,.421-.548c-.015-1.487-.01-2.974-.005-4.462,0-.831.325-1.154,1.158-1.155q3.476-.006,6.951,0c.83,0,1.153.326,1.156,1.159.005,1.487-.009,2.975.015,4.462,0,.172.163.462.3.493a22.826,22.826,0,0,1,7.177,3.046q1.027-1.041,2.058-2.083c.463-.466.927-.931,1.4-1.39a.987.987,0,0,1,1.639.012q2.442,2.432,4.873,4.875c.614.617.617,1.073.008,1.682-1.134,1.131-2.277,2.254-3.444,3.408.25.429.481.821.707,1.217a21.1,21.1,0,0,1,2.264,5.8c.094.413.254.514.653.508,1.447-.024,2.9-.012,4.344-.009.867,0,1.181.318,1.183,1.192q0,3.447,0,6.9c0,.867-.319,1.181-1.191,1.183-1.6,0-3.2,0-4.763,0-.443,1.314-.808,2.616-1.322,3.855s-1.179,2.423-1.845,3.767a2.818,2.818,0,0,1,.428.312q3.508,3.5,7,7.006a4.634,4.634,0,0,1-2.641,7.947,4.5,4.5,0,0,1-3.932-1.419q-3.48-3.484-6.96-6.968a3.9,3.9,0,0,1-.334-.419c-1.476.709-2.823,1.417-4.22,2a23.806,23.806,0,0,1-2.976.929c-.331.09-.426.218-.423.545.015,1.487.01,2.975.005,4.462,0,.831-.328,1.156-1.158,1.158q-3.476.007-6.95,0c-.831,0-1.155-.327-1.157-1.158-.005-1.487.008-2.975-.015-4.462,0-.172-.163-.463-.3-.494A22.857,22.857,0,0,1,1502.265,7151.179Zm32.4-34.981-3.96-3.962c-1.066,1.076-2.148,2.175-3.238,3.267-.6.6-.929.641-1.623.168a20.309,20.309,0,0,0-7.751-3.193.966.966,0,0,1-.928-1.109c-.007-1.41,0-2.82,0-4.23v-.541h-5.5a.525.525,0,0,0-.05.134q-.008,2.172-.01,4.345c0,1.057-.163,1.274-1.206,1.474a20.09,20.09,0,0,0-7.423,3.088c-.77.513-1.064.484-1.712-.169-1.073-1.082-2.14-2.17-3.183-3.229l-3.962,3.979c1.053,1.044,2.136,2.115,3.216,3.191.645.643.675.942.159,1.712a20.239,20.239,0,0,0-3.079,7.371c-.224,1.127-.4,1.253-1.547,1.253h-4.4v5.563c1.579,0,3.12,0,4.662,0,.807,0,1.067.206,1.223,1a20.485,20.485,0,0,0,3.19,7.695c.463.679.417,1.019-.186,1.623-1.088,1.09-2.184,2.174-3.213,3.2l3.957,3.957c1.062-1.071,2.158-2.185,3.264-3.289a.954.954,0,0,1,1.436-.184,20.618,20.618,0,0,0,7.959,3.284.963.963,0,0,1,.842,1.072c-.007,1.313,0,2.627,0,3.94v.841h5.561c0-1.587,0-3.131,0-4.675,0-.77.229-1.044.965-1.2.378-.078.757-.147,1.131-.242a19.844,19.844,0,0,0,5.8-2.438l-2.684-2.683a16.718,16.718,0,1,1,.825-28.87,16.188,16.188,0,0,1,6.917,8.645,16.515,16.515,0,0,1-1.055,13.5l2.691,2.7c.054-.084.141-.21.219-.343a20.451,20.451,0,0,0,2.453-6.579c.135-.709.425-.944,1.151-.947,1.217,0,2.433,0,3.649,0h1.065v-5.563c-1.569,0-3.094,0-4.618,0-.844,0-1.1-.2-1.261-1.025a20.584,20.584,0,0,0-3.131-7.6c-.531-.79-.5-1.065.192-1.754C1532.538,7118.307,1533.608,7117.25,1534.669,7116.2Zm-13.71,29.592c-1.644-1.679-3.242-3.352-4.892-4.973a2.7,2.7,0,0,0-2.164-.615,12.613,12.613,0,0,1-2.19-.017,9.24,9.24,0,0,1-7.334-12.861c.433-.976,1.074-1.106,1.823-.36,1.437,1.43,2.867,2.868,4.3,4.3.132.131.3.315.451.322.821.032,1.644.015,2.5.015,0-.765.031-1.459-.015-2.149a1.341,1.341,0,0,0-.33-.792c-1.428-1.466-2.887-2.9-4.328-4.355-.691-.7-.559-1.358.343-1.759a9.239,9.239,0,0,1,12.956,9.326,3.129,3.129,0,0,0,.961,2.777c1.406,1.379,2.788,2.782,4.183,4.174.117.116.249.218.383.333a14.822,14.822,0,1,0-6.653,6.637Zm-15.22-16.654c-.06.17-.1.258-.123.351a7.408,7.408,0,0,0,7.787,8.906,5.372,5.372,0,0,1,4.629,1.7q8.465,8.531,16.983,17.006a6.745,6.745,0,0,0,.546.518,2.774,2.774,0,0,0,3.693-4.135q-2.9-2.919-5.81-5.819-5.875-5.877-11.753-11.752a4.771,4.771,0,0,1-1.463-4.1,7.406,7.406,0,0,0-5.411-7.955,6.976,6.976,0,0,0-3.813,0c.169.183.293.326.426.459,1.131,1.135,2.257,2.276,3.4,3.4a1.5,1.5,0,0,1,.489,1.179c-.023,1.119,0,2.24-.008,3.36,0,.9-.313,1.2-1.228,1.2-1.08,0-2.162-.021-3.242.01a1.655,1.655,0,0,1-1.329-.551C1508.289,7131.663,1507.038,7130.433,1505.739,7129.136Z" fill="#fff"/>
    <path id="Path_70" data-name="Path 70" d="M1522.861,7140.013a4.4,4.4,0,0,1,.8.492q5.474,5.45,10.925,10.92a.936.936,0,1,1-1.308,1.312q-5.466-5.457-10.924-10.921a.913.913,0,0,1-.265-1.145C1522.241,7140.407,1522.575,7140.247,1522.861,7140.013Z" fill="#fff"/>
    <path id="Path_71" data-name="Path 71" d="M1521.246,7138.517c-.14.192-.275.554-.523.665a1.209,1.209,0,0,1-.956-.033,3.267,3.267,0,0,1-.9-.881.812.812,0,0,1,.072-1.112.8.8,0,0,1,1.094-.2A2.5,2.5,0,0,1,1521.246,7138.517Z" fill="#fff"/>
    <path id="Path_72" data-name="Path 72" d="M1538.238,7155.482a.9.9,0,0,1-1.315.79,3.677,3.677,0,0,1-1.056-1.036.9.9,0,0,1,.757-1.341A2.129,2.129,0,0,1,1538.238,7155.482Z" fill="#fff"/>
  </g>
</svg>
