<svg xmlns="http://www.w3.org/2000/svg" width="62.354" height="52.751" viewBox="0 0 62.354 52.751">
  <g id="Group_105" data-name="Group 105" transform="translate(-391.231 -6825.557)">
    <path id="Path_41" data-name="Path 41" d="M453.585,6876.639a2.645,2.645,0,0,1-2.845,1.669c-4.362-.047-8.724-.018-13.085-.018h-.366c-.869,0-1.316-.314-1.317-.913s.441-.911,1.313-.912q3.2,0,6.391,0h.689a8.542,8.542,0,0,1,7.393-7.392c0-2.216.008-4.425-.02-6.635,0-.135-.275-.351-.452-.388a8.25,8.25,0,0,1-6.649-6.112c-.058-.194-.1-.394-.137-.592-.037-.175-.066-.351-.11-.589h-.611c-5.579,0-11.158.008-16.737-.013-.518,0-.662.165-.777.653a14.1,14.1,0,0,1-8,9.89.75.75,0,0,0-.515.817c.026.99.008,1.981.008,2.973a8.5,8.5,0,0,1,7.379,7.388h2.132c1.7,0,3.408,0,5.112,0,.757,0,1.127.307,1.138.889.011.6-.379.931-1.159.932q-7.061.006-14.12,0a2.139,2.139,0,0,1-2.3-2.331c-.011-3,0-6,0-9.007v-.773c-.572.094-1.085.186-1.6.262a14.249,14.249,0,0,1-6.647-27.573c.442-.157.56-.33.435-.783-.172-.623-.273-1.266-.394-1.9a2.325,2.325,0,0,1,2.339-2.909c1.541-.029,3.084-.032,4.625,0a2.3,2.3,0,0,1,2.287,2.885c-.153.814-.313,1.626-.471,2.441.886.4,1.753.774,2.607,1.178a1.487,1.487,0,0,1,.559.447.807.807,0,0,1-.077,1.063.907.907,0,0,1-1.216.159,13.266,13.266,0,0,0-4-1.388,12.429,12.429,0,1,0,7.337,4.083c-.528-.623-.518-1.223.034-1.557a.923.923,0,0,1,1.285.291,13.964,13.964,0,0,1,3.4,7.276c.131.9.156,1.808.236,2.783h.771c7.77,0,15.54.016,23.31-.015a2.639,2.639,0,0,1,2.834,1.689Zm-1.828-5.6c-2.526.039-5.436,2.947-5.421,5.422,1.655,0,3.312.012,4.968-.019a.625.625,0,0,0,.434-.431C451.769,6874.351,451.757,6872.694,451.757,6871.036Zm0-10.845c0-1.657.012-3.315-.02-4.973a.632.632,0,0,0-.435-.436c-1.657-.032-3.314-.02-4.971-.02C446.325,6857.248,449.28,6860.2,451.757,6860.191ZM423.2,6876.458c-.286-2.783-3.175-5.614-5.44-5.369,0,1.63-.012,3.266.019,4.9a.624.624,0,0,0,.411.447C419.844,6876.47,421.5,6876.458,423.2,6876.458Zm-8.482-38.32c.153-.75.317-1.538.473-2.327.091-.455-.105-.715-.567-.718-1.517-.01-3.034-.006-4.55,0-.357,0-.619.175-.559.552.138.869.323,1.73.47,2.494Z" fill="#fff"/>
    <path id="Path_42" data-name="Path 42" d="M398.9,6835.976c-.382-.094-.717-.167-1.047-.26a.928.928,0,0,1-.746-1.136.912.912,0,0,1,1.143-.646c1.007.231,2.009.483,3.007.747a.89.89,0,0,1,.721.931c0,1.034.011,2.069-.006,3.1a.864.864,0,0,1-.894.938.9.9,0,0,1-.919-.931c-.016-.2-.005-.406-.006-.609v-.712c-.36.312-.628.532-.883.767a19.3,19.3,0,0,0,6.741,32.351,18.922,18.922,0,0,0,5.472,1.047c.243.009.486.016.729.033.665.046,1.066.406,1.049.936a.927.927,0,0,1-1.1.876,27.269,27.269,0,0,1-4.22-.48c-8.694-2.156-14.311-7.58-16.193-16.34-1.694-7.879.767-14.64,6.687-20.122.119-.11.244-.213.363-.324A.919.919,0,0,0,398.9,6835.976Z" fill="#fff"/>
    <path id="Path_43" data-name="Path 43" d="M437.222,6825.561c1.156,0,2.311-.01,3.466,0a2.138,2.138,0,0,1,2.234,2.777q-1.071,5.048-2.138,10.1a2.2,2.2,0,0,1-2.363,1.987c-.83.019-1.662.021-2.492,0a2.158,2.158,0,0,1-2.322-1.947q-1.077-5.015-2.147-10.031a2.175,2.175,0,0,1,2.358-2.884C434.953,6825.558,436.088,6825.561,437.222,6825.561Zm.012,1.826c-1.134,0-2.269.013-3.4-.006-.5-.008-.708.116-.587.671q1.088,5.01,2.131,10.03a.566.566,0,0,0,.667.525c.728-.017,1.459-.03,2.187,0,.509.024.692-.177.794-.67.677-3.288,1.39-6.569,2.09-9.853.131-.613.063-.7-.6-.7C439.422,6827.383,438.328,6827.387,437.234,6827.387Z" fill="#fff"/>
    <path id="Path_44" data-name="Path 44" d="M435.693,6870.727a7.263,7.263,0,0,1-.036.729.881.881,0,0,1-.967.807.8.8,0,0,1-.821-.872c.038-.589-.19-.808-.729-1.013a6.075,6.075,0,0,1-1.626-1.028.884.884,0,0,1-.162-1.381.914.914,0,0,1,1.393.061,2.912,2.912,0,0,0,2.618.822,1.907,1.907,0,0,0,.848-.427.86.86,0,0,0-.063-1.447,5.008,5.008,0,0,0-1.016-.534c-.614-.263-1.238-.5-1.86-.744a2.421,2.421,0,0,1-1.689-2.361,2.563,2.563,0,0,1,1.685-2.514c.442-.186.621-.384.6-.875a.853.853,0,0,1,.9-.983.878.878,0,0,1,.895,1c-.019.481.162.642.6.786a6.073,6.073,0,0,1,1.445.753.868.868,0,0,1,.252,1.275.91.91,0,0,1-1.3.2,3,3,0,0,0-2.277-.616c-.5.1-.9.322-.969.862s.356.705.763.873c.9.37,1.821.695,2.674,1.15a2.662,2.662,0,0,1,1.537,2.5,2.841,2.841,0,0,1-1.626,2.527A10.4,10.4,0,0,1,435.693,6870.727Z" fill="#fff"/>
    <path id="Path_45" data-name="Path 45" d="M437.25,6843.4c.364,0,.729,0,1.093,0a2.112,2.112,0,0,1,2.184,2.067c.04.848.041,1.7,0,2.551a2.116,2.116,0,0,1-2.13,2.066q-1.215.033-2.43,0a2.1,2.1,0,0,1-2.113-2.134q-.022-1.215,0-2.43a2.093,2.093,0,0,1,2.121-2.118C436.4,6843.393,436.824,6843.4,437.25,6843.4Zm-.038,1.826c-1.537,0-1.537,0-1.537,1.518v.061c0,1.459,0,1.468,1.484,1.457,1.776-.014,1.541.25,1.552-1.527C438.72,6845.226,438.713,6845.226,437.212,6845.226Z" fill="#fff"/>
    <path id="Path_46" data-name="Path 46" d="M413.312,6849.235a7.729,7.729,0,0,0,.07,2.706c.305.764,1.183,1.3,1.81,1.932a5.9,5.9,0,0,1,.464.481.861.861,0,0,1-.028,1.215.815.815,0,0,1-1.207.08c-.948-.886-1.858-1.813-2.75-2.755a1.161,1.161,0,0,1-.213-.73c-.017-1.765-.014-3.531-.007-5.3,0-.682.333-1.057.9-1.06s.91.385.921,1.053c.013.791,0,1.582,0,2.374Z" fill="#fff"/>
  </g>
</svg>
