<svg xmlns="http://www.w3.org/2000/svg" width="57.12" height="58.72" viewBox="0 0 57.12 58.72">
  <g id="Group_108" data-name="Group 108" transform="translate(-931.44 -7103.152)">
    <path id="Path_53" data-name="Path 53" d="M936.033,7161.872a6.07,6.07,0,0,1-2.849-1.374,5.2,5.2,0,0,1-1.725-3.746c-.031-.859-.016-1.72-.008-2.58a2.033,2.033,0,0,1,2.122-2.137c1.013-.021,2.026-.011,3.039-.017.035,0,.07-.027.174-.072v-.644q0-4.1,0-8.2a3.118,3.118,0,0,1,.045-.684.839.839,0,0,1,1.607-.05,2.7,2.7,0,0,1,.065.738q.007,4.071,0,8.142v.782h.748q15.427,0,30.854.015a3.493,3.493,0,0,1,1.529.349,1.86,1.86,0,0,1,.934,1.785c0,.88-.025,1.761.024,2.637a3.524,3.524,0,0,0,6.952.608,3.4,3.4,0,0,0,.091-.793q.012-3.583.005-7.167c0-.093-.016-.186-.03-.331-4.909,1.167-9.2.091-12.668-3.6a11.857,11.857,0,0,1-3.239-9.361,12.5,12.5,0,0,1,15.939-11v-.62q0-4.646,0-9.289a2.324,2.324,0,0,1,.089-.732.84.84,0,0,1,1.6.151,3.561,3.561,0,0,1,.024.629c0,3.307.01,6.613-.008,9.92a.875.875,0,0,0,.546.92,12.416,12.416,0,0,1,5.472,16.269c-.118.246-.306.565-.525.629a1.275,1.275,0,0,1-.935-.124c-.36-.226-.333-.633-.193-1.033a21.811,21.811,0,0,0,.92-2.818,10.717,10.717,0,1,0-9.382,8.729,10.825,10.825,0,0,0,6.107-2.761c.575-.519,1.216-.469,1.488.1a.844.844,0,0,1-.287,1.12c-.908.663-1.819,1.324-2.764,1.93a.767.767,0,0,0-.447.75c.018,2.389.01,4.779.009,7.168,0,3.107-1.405,4.916-4.411,5.687-.033.009-.058.045-.087.068Zm36.193-1.72a5.618,5.618,0,0,1-1.377-4.154c.017-.438,0-.878,0-1.318,0-.929,0-.929-.9-.929H934.067c-.076,0-.153.006-.229,0-.482-.05-.705.131-.676.648.034.59.008,1.184.008,1.776,0,2.552,1.422,3.978,3.967,3.978h35.089Z" fill="#fff"/>
    <path id="Path_54" data-name="Path 54" d="M959.106,7103.153h19.21a2.734,2.734,0,0,1,3.05,3.038q0,2.207,0,4.414c0,.7-.29,1.062-.832,1.073s-.883-.38-.886-1.093c-.006-1.49,0-2.981,0-4.472,0-.907-.339-1.239-1.251-1.239H939.8c-.988,0-1.295.324-1.295,1.373q0,11.438,0,22.876v9.115c-.005.818-.3,1.241-.862,1.243s-.859-.418-.859-1.239q0-16.053,0-32.106a2.724,2.724,0,0,1,2.994-2.982Q949.445,7103.151,959.106,7103.153Z" fill="#fff"/>
    <path id="Path_55" data-name="Path 55" d="M959.11,7117.976h13.128c1.529,0,2.193.667,2.2,2.2,0,.382.011.764,0,1.146a1.821,1.821,0,0,1-1.853,1.856c-.153.007-.306,0-.459,0H946.034c-1.683,0-2.306-.628-2.306-2.322,0-.287,0-.573,0-.86a1.837,1.837,0,0,1,2.025-2.025q6.249-.006,12.5,0Zm-13.645,3.489h26.126c1.125,0,1.1,0,1.133-1.111.018-.529-.14-.67-.668-.669q-12.99.024-25.98.013c-.2,0-.4.022-.611.034Z" fill="#fff"/>
    <path id="Path_56" data-name="Path 56" d="M981.566,7137.688c-.276.073-.549.235-.769.18a1.1,1.1,0,0,1-.685-.5.941.941,0,0,1,.1-.835,17.673,17.673,0,0,1,1.78-1.7.812.812,0,0,1,1.143.108c.491.454.983.908,1.463,1.373a.876.876,0,0,1,.2,1.226c-.285.389-.7.444-1.216.163-.063-.035-.13-.063-.235-.112a7.343,7.343,0,0,1-2.045,4.579,7.225,7.225,0,1,1-5.955-12.2,3.909,3.909,0,0,1,.856-.035.793.793,0,0,1,.764.848.8.8,0,0,1-.778.836,13.4,13.4,0,0,0-1.415.2,5.5,5.5,0,1,0,6.779,6.253A2.932,2.932,0,0,0,981.566,7137.688Z" fill="#fff"/>
    <path id="Path_57" data-name="Path 57" d="M947.415,7145.541c0,.553.009,1.106,0,1.658-.013.676-.309,1-.968,1.006q-1.745.024-3.489,0a.867.867,0,0,1-.955-.966q-.018-1.744,0-3.489a.858.858,0,0,1,.945-.971q1.743-.031,3.489,0c.684.011.965.311.978.992C947.424,7144.359,947.415,7144.95,947.415,7145.541Zm-1.753-1.019h-1.9v1.928h1.9Z" fill="#fff"/>
    <path id="Path_58" data-name="Path 58" d="M964.6,7111.23c-.464-.662-.918-1.3-1.361-1.943-.366-.533-.329-1.007.084-1.318.431-.324.93-.205,1.32.329.334.46.657.928,1.013,1.432.382-.539.715-1.028,1.067-1.5a.86.86,0,1,1,1.4.99c-.382.571-.81,1.113-1.169,1.7a.714.714,0,0,0,0,.628c.441.692.938,1.348,1.4,2.025.377.55.319,1.055-.134,1.352-.433.285-.893.159-1.271-.364-.423-.585-.834-1.178-1.293-1.827-.438.621-.839,1.2-1.249,1.767-.426.593-.9.728-1.347.4s-.455-.82-.042-1.412C963.539,7112.735,964.067,7111.989,964.6,7111.23Z" fill="#fff"/>
    <path id="Path_59" data-name="Path 59" d="M960.978,7114.354a3.041,3.041,0,0,1-.741.665.661.661,0,0,1-.93-.427c-.2-.949-.837-.96-1.568-.89a1.545,1.545,0,0,1-.4,0,.591.591,0,0,0-.777.52,1.167,1.167,0,0,1-.151.37.808.808,0,0,1-1.012.426.79.79,0,0,1-.567-.987,5.955,5.955,0,0,1,.3-.863c.567-1.5,1.142-2.989,1.7-4.488.188-.505.464-.9,1.053-.883.557.015.814.393.994.881.612,1.662,1.249,3.316,1.873,4.974C960.817,7113.828,960.868,7114.011,960.978,7114.354Zm-2.717-2.4-.4-1.082-.421,1.082Z" fill="#fff"/>
    <path id="Path_60" data-name="Path 60" d="M942,7137.158c0-.572-.007-1.144,0-1.716.011-.676.307-.989.97-1q1.745-.018,3.489,0a.836.836,0,0,1,.953.947q.02,1.772,0,3.545a.833.833,0,0,1-.931.915q-1.773.018-3.546,0a.847.847,0,0,1-.932-.921C941.986,7138.34,942,7137.749,942,7137.158Zm3.654.958V7136.2h-1.895v1.912Z" fill="#fff"/>
    <path id="Path_61" data-name="Path 61" d="M944.679,7131.509c-.572,0-1.144.009-1.716,0a.852.852,0,0,1-.962-.946q-.018-1.743,0-3.488a.86.86,0,0,1,.938-.976q1.773-.021,3.546,0a.836.836,0,0,1,.925.924q.023,1.773,0,3.546c-.008.642-.308.918-.959.943-.038,0-.076,0-.114,0Zm.989-3.653h-1.906v1.884h1.906Z" fill="#fff"/>
    <path id="Path_62" data-name="Path 62" d="M955.862,7131.508c-1.526,0-3.052.01-4.579,0a.842.842,0,0,1-.9-1.082.861.861,0,0,1,.917-.629c3.053,0,6.1-.009,9.158,0a.842.842,0,0,1,.929.869c0,.512-.347.835-.947.839C958.915,7131.515,957.388,7131.508,955.862,7131.508Z" fill="#fff"/>
    <path id="Path_63" data-name="Path 63" d="M955.9,7134.442c1.469,0,2.938,0,4.407,0,.7,0,1.066.286,1.082.822.017.561-.371.894-1.081.9q-4.436.006-8.872,0c-.715,0-1.093-.327-1.078-.9.014-.542.369-.82,1.077-.822C952.923,7134.439,954.411,7134.442,955.9,7134.442Z" fill="#fff"/>
    <path id="Path_64" data-name="Path 64" d="M955.919,7146.49c1.469,0,2.938,0,4.407,0,.686,0,1.058.3,1.063.841s-.371.874-1.044.875q-4.464.009-8.929,0c-.68,0-1.054-.316-1.06-.856s.355-.858,1.04-.86C952.9,7146.487,954.411,7146.49,955.919,7146.49Z" fill="#fff"/>
    <path id="Path_65" data-name="Path 65" d="M955.818,7127.811c-1.47,0-2.939,0-4.408,0-.678,0-1.053-.313-1.055-.854s.375-.862,1.047-.863q4.466-.006,8.93,0c.676,0,1.055.317,1.057.855s-.378.86-1.049.862C958.833,7127.814,957.325,7127.811,955.818,7127.811Z" fill="#fff"/>
    <path id="Path_66" data-name="Path 66" d="M955.878,7139.857c-1.488,0-2.977,0-4.465,0-.683,0-1.054-.305-1.057-.849s.371-.867,1.043-.868q4.465-.007,8.93,0c.678,0,1.056.315,1.06.854s-.374.861-1.046.863C958.855,7139.86,957.366,7139.857,955.878,7139.857Z" fill="#fff"/>
    <path id="Path_67" data-name="Path 67" d="M955.877,7144.49c-1.488,0-2.976,0-4.464,0a.927.927,0,0,1-1.015-.572.834.834,0,0,1,.775-1.13c.531-.041,1.068-.019,1.6-.02q3.633,0,7.267,0a4.189,4.189,0,0,1,.571.02.8.8,0,0,1,.773.837.791.791,0,0,1-.817.845c-.9.031-1.793.015-2.689.017Z" fill="#fff"/>
    <path id="Path_68" data-name="Path 68" d="M952.791,7109.532c0,1.514,0,2.962,0,4.411,0,.717-.311,1.122-.849,1.125s-.868-.41-.87-1.114c0-1.278,0-2.556,0-3.834v-.587c-.3-.02-.548-.021-.788-.056a.771.771,0,0,1-.715-.764c-.034-.46.19-.851.641-.871,1.158-.052,2.322-.047,3.48,0a.712.712,0,0,1,.636.823.78.78,0,0,1-.73.813C953.352,7109.512,953.107,7109.513,952.791,7109.532Z" fill="#fff"/>
  </g>
</svg>
