<svg xmlns="http://www.w3.org/2000/svg" width="47.91" height="47.896" viewBox="0 0 47.91 47.896">
  <g id="Group_106" data-name="Group 106" transform="translate(-936.045 -6830.139)">
    <path id="Path_47" data-name="Path 47" d="M955.319,6830.139c.965.157,1.939.27,2.893.478a18.076,18.076,0,0,1,11.551,26.7c-.046.08-.088.162-.17.315.443.423.9.844,1.34,1.282q5.807,5.8,11.608,11.607a4.314,4.314,0,0,1-5.7,6.481c-.2-.172-.389-.36-.576-.547q-6.17-6.166-12.335-12.337c-.131-.131-.239-.287-.352-.425-.715.36-1.354.71-2.015,1.011a18.117,18.117,0,0,1-25.213-13.131c-.127-.686-.208-1.38-.31-2.07v-2.527a2.8,2.8,0,0,0,.077-.359,17.328,17.328,0,0,1,2.845-8.248,17.72,17.72,0,0,1,11.214-7.774c.921-.207,1.865-.31,2.8-.461Zm-1.185,1.466a16.625,16.625,0,1,0,16.627,16.611A16.6,16.6,0,0,0,954.134,6831.6Zm10.681,31.407a4.867,4.867,0,0,1,.378.321q3.739,3.733,7.475,7.472c1.632,1.631,3.253,3.273,4.9,4.891a2.861,2.861,0,0,0,4.46-.392,2.905,2.905,0,0,0-.5-3.743q-6.213-6.22-12.434-12.434c-.1-.095-.2-.177-.21-.185Z" fill="#fff"/>
    <path id="Path_48" data-name="Path 48" d="M968.473,6848.256a14.342,14.342,0,1,1-14.216-14.373A14.368,14.368,0,0,1,968.473,6848.256Zm-14.355-12.918a12.887,12.887,0,1,0,12.9,12.86A12.889,12.889,0,0,0,954.118,6835.338Z" fill="#fff"/>
    <path id="Path_49" data-name="Path 49" d="M946.665,6847.917c-.413,0-.753,0-1.093,0a.74.74,0,0,1-.488-1.364q4.278-3.252,8.554-6.511a.787.787,0,0,1,1.064.009q4.223,3.289,8.449,6.572a.732.732,0,0,1,.336.885.752.752,0,0,1-.811.5c-.354,0-.709,0-1.119,0v.587q0,3.483,0,6.967c0,.842-.215,1.057-1.044,1.058H947.794c-.945,0-1.129-.18-1.129-1.109q0-3.484,0-6.967Zm4.724,7.231v-.5c0-1.029,0-2.057,0-3.086,0-.658.252-.922.89-.925q1.846-.01,3.693,0c.592,0,.85.267.854.862.006,1.044,0,2.088,0,3.132v.5h3.233v-7.156H948.15v7.174Zm-3.661-8.778.032.115h12.851l-6.449-5.016Zm5.127,8.758h2.5v-2.984h-2.5Z" fill="#fff"/>
  </g>
</svg>
