<svg xmlns="http://www.w3.org/2000/svg" width="63.165" height="63.192" viewBox="0 0 63.165 63.192">
  <g id="Group_112" data-name="Group 112" transform="translate(-987.836 -4386.389)">
    <path id="Path_95" data-name="Path 95" d="M1005.651,4439.169c-1.3,1.306-2.56,2.584-3.829,3.857-.777.778-1.261.773-2.05-.015q-2.7-2.7-5.4-5.4c-.76-.761-.763-1.25-.01-2,1.273-1.269,2.551-2.534,3.863-3.836-.236-.4-.457-.768-.673-1.14a24.459,24.459,0,0,1-2.715-6.879c-.094-.412-.261-.518-.658-.513-1.666.02-3.333.012-5,.007-.986,0-1.343-.36-1.344-1.351q-.006-3.916,0-7.832c0-.989.358-1.343,1.35-1.346,1.819,0,3.638,0,5.411,0,.5-1.49.914-2.969,1.5-4.376s1.338-2.753,2.066-4.223c-1.2-1.19-2.479-2.451-3.752-3.718-.813-.809-.807-1.271.015-2.095q2.7-2.7,5.4-5.4c.728-.727,1.236-.731,1.955-.011,1.286,1.287,2.564,2.582,3.776,3.805,1.613-.778,3.121-1.579,4.688-2.236a27.686,27.686,0,0,1,3.443-1.071c.376-.1.482-.254.478-.623-.017-1.69-.011-3.379-.006-5.068,0-.945.37-1.311,1.317-1.313q3.946-.006,7.894,0c.943,0,1.31.371,1.313,1.317.006,1.689-.009,3.379.017,5.068a.726.726,0,0,0,.341.562c1.384.477,2.818.825,4.17,1.376s2.628,1.293,4.052,2.008c.7-.714,1.484-1.505,2.266-2.292q.788-.794,1.584-1.579a1.122,1.122,0,0,1,1.862.013q2.773,2.763,5.535,5.538c.7.7.7,1.218.009,1.91-1.285,1.288-2.58,2.566-3.905,3.882.277.476.54.922.8,1.372a23.969,23.969,0,0,1,2.571,6.586c.107.47.289.584.742.577,1.644-.027,3.289-.014,4.933-.01.986,0,1.343.361,1.344,1.353q.006,3.916,0,7.832c0,.985-.363,1.342-1.353,1.344-1.819,0-3.638,0-5.517,0a25.978,25.978,0,0,1-3.591,8.584,4.473,4.473,0,0,1,.587.427q3.985,3.97,7.955,7.957a5.263,5.263,0,0,1-3,9.027,5.115,5.115,0,0,1-4.466-1.612q-3.954-3.957-7.907-7.914c-.17-.17-.314-.366-.4-.466-1.656.795-3.186,1.6-4.773,2.266a26.815,26.815,0,0,1-3.38,1.055c-.376.1-.484.248-.481.619.017,1.689.012,3.379.006,5.068,0,.944-.372,1.314-1.315,1.315q-3.948.007-7.894,0c-.944,0-1.312-.37-1.315-1.315-.005-1.689.01-3.379-.017-5.067,0-.2-.184-.527-.337-.562A25.92,25.92,0,0,1,1005.651,4439.169Zm-4.638-44.093-4.5,4.488c1.16,1.153,2.409,2.385,3.647,3.628a1.091,1.091,0,0,1,.21,1.634,23.338,23.338,0,0,0-3.73,9.045,1.093,1.093,0,0,1-1.216.957c-1.491-.008-2.982,0-4.473,0h-.956v6.318c1.781,0,3.511,0,5.242,0,.969,0,1.257.222,1.44,1.153a23.355,23.355,0,0,0,3.554,8.63c.606.9.567,1.221-.2,2-.7.7-1.384,1.408-2.1,2.092-.531.512-1.092.993-1.615,1.466l4.557,4.566c1.217-1.229,2.446-2.476,3.682-3.716.69-.692,1.055-.742,1.84-.209a23.3,23.3,0,0,0,8.8,3.633c.8.153,1.061.491,1.064,1.32.005,1.579,0,3.159,0,4.738v.625h6.316v-.673c0-1.579-.005-3.159,0-4.738,0-.776.292-1.092,1.047-1.273,1.021-.244,2.049-.471,3.05-.784a20.046,20.046,0,0,0,4.865-2.267l-3.054-3.047a18.987,18.987,0,1,1,.4-33.117,18.457,18.457,0,0,1,8.226,9.673,18.757,18.757,0,0,1-1,15.772l3.064,3.065a22.971,22.971,0,0,0,3-7.783c.168-.863.474-1.119,1.333-1.122,1.4,0,2.807,0,4.21,0h1.143v-6.319c-1.805,0-3.576,0-5.347,0-.861,0-1.171-.256-1.339-1.117a23.383,23.383,0,0,0-3.575-8.691c-.589-.873-.553-1.2.195-1.943,1.225-1.222,2.456-2.438,3.639-3.611l-4.5-4.5c-1.2,1.207-2.43,2.455-3.669,3.7-.67.67-1.051.708-1.845.168a23.111,23.111,0,0,0-8.484-3.559c-1.224-.25-1.361-.433-1.361-1.665,0-1.683,0-3.365,0-5.065h-6.316v5.033c0,1.257-.177,1.494-1.387,1.727a22.568,22.568,0,0,0-8.316,3.444c-1,.67-1.277.639-2.149-.239C1003.22,4397.309,1002.036,4396.11,1001.013,4395.076Zm17.353,21.856c0-.871.031-1.679-.017-2.483a1.418,1.418,0,0,0-.355-.843c-1.623-1.663-3.278-3.3-4.917-4.944-.8-.8-.672-1.575.346-2a10.517,10.517,0,0,1,14.724,10.68,3.518,3.518,0,0,0,1.043,2.984c1.62,1.6,3.227,3.224,4.841,4.836.12.119.252.224.386.343a16.848,16.848,0,1,0-7.513,7.5.639.639,0,0,0-.09-.163c-1.766-1.769-3.522-3.55-5.309-5.3a3.243,3.243,0,0,0-2.608-.84,14.193,14.193,0,0,1-2.487-.015,10.492,10.492,0,0,1-8.37-14.585c.5-1.142,1.23-1.285,2.11-.408,1.631,1.626,3.252,3.262,4.894,4.877a1.221,1.221,0,0,0,.715.347C1016.59,4416.958,1017.424,4416.932,1018.366,4416.932Zm-8.767-2.8c-.067.183-.116.283-.141.388a8.427,8.427,0,0,0,8.9,10.124,5.892,5.892,0,0,1,5.1,1.833q9.647,9.7,19.338,19.36c.2.2.4.412.617.592a3.037,3.037,0,0,0,3.437.449,3.135,3.135,0,0,0,.772-5.137c-2.51-2.544-5.048-5.06-7.575-7.588q-6.138-6.139-12.281-12.277a5.47,5.47,0,0,1-1.714-4.7,8.393,8.393,0,0,0-4.489-8.4,8.223,8.223,0,0,0-6-.659c.2.213.337.374.488.526,1.3,1.3,2.623,2.586,3.887,3.926a2.033,2.033,0,0,1,.505,1.205c.064,1.334.031,2.674.021,4.012-.006.856-.39,1.237-1.252,1.243-1.272.009-2.544-.021-3.815.013a1.889,1.889,0,0,1-1.512-.619C1012.5,4417.007,1011.077,4415.61,1009.6,4414.134Z" fill="#fff"/>
    <path id="Path_96" data-name="Path 96" d="M1029.015,4426.486a4.736,4.736,0,0,1,.919.539q6.24,6.213,12.454,12.452a1.058,1.058,0,1,1-1.492,1.48q-6.233-6.219-12.455-12.451a1.013,1.013,0,0,1-.285-1.249C1028.325,4426.954,1028.695,4426.762,1029.015,4426.486Z" fill="#fff"/>
    <path id="Path_97" data-name="Path 97" d="M1027.229,4424.76c-.178.243-.331.656-.612.781a1.369,1.369,0,0,1-1.086-.035,3.792,3.792,0,0,1-1.026-1,.912.912,0,0,1,.039-1.213.9.9,0,0,1,1.164-.33A2.951,2.951,0,0,1,1027.229,4424.76Z" fill="#fff"/>
    <path id="Path_98" data-name="Path 98" d="M1046.51,4444.057a1.017,1.017,0,0,1-1.494.9,4.186,4.186,0,0,1-1.2-1.176,1.023,1.023,0,0,1,.861-1.523A2.415,2.415,0,0,1,1046.51,4444.057Z" fill="#fff"/>
  </g>
</svg>
