<svg xmlns="http://www.w3.org/2000/svg" width="44.085" height="54.495" viewBox="0 0 44.085 54.495">
  <g id="Group_107" data-name="Group 107" transform="translate(-1489.686 -6824.691)">
    <path id="Path_50" data-name="Path 50" d="M1512.673,6824.691c1.705.722,2.1,1.4,1.959,3.3-.061.812-.087,1.627-.129,2.433,2.04.873,2.527,1.779,1.943,3.65.654.36,1.317.722,1.977,1.089a4.2,4.2,0,0,1,.5.307.791.791,0,0,1-.828,1.347c-.863-.451-1.706-.941-2.582-1.366a1.169,1.169,0,0,0-.827-.049q-4.785,1.763-9.548,3.586a1.147,1.147,0,0,0-.575.538,23.9,23.9,0,0,0-2.084,8.521c-.047.8-.036.813.741.813,5.056,0,10.113.07,15.167-.024a6.283,6.283,0,0,1,6.578,5.078,15.271,15.271,0,0,0,1.682.147c.561-.01.864-.438,1.067-.914a5.174,5.174,0,0,0,.224-2.879,17.245,17.245,0,0,0-4.2-8.576c-.822-.97-1.809-1.8-2.677-2.732a1.163,1.163,0,0,1-.269-.883c.041-.213.381-.434.633-.521a.787.787,0,0,1,.623.19c3.673,3.177,6.4,6.959,7.382,11.809a11.11,11.11,0,0,1,.144,2.592,4.2,4.2,0,0,1-1.1,2.725,4.249,4.249,0,0,1,1.5,2.524c.026.123.2.257.342.307.613.227,1.262.37,1.851.644a2.734,2.734,0,0,1-2.238,4.99,2.494,2.494,0,0,0-2.055-.036c-.618.257-1.255.47-1.927.719l2.083,6.4c.233-.117.432-.213.627-.315a2.631,2.631,0,1,1,2.45,4.644,36.1,36.1,0,0,1-11.821,3.993,36.606,36.606,0,0,1-23.306-4.042,2.626,2.626,0,0,1-1.376-3.088,2.59,2.59,0,0,1,2.7-1.879,3.594,3.594,0,0,1,1.157.349c.707.322,1.391.694,2.126,1.066.071-.182.133-.322.18-.465.766-2.34,1.537-4.677,2.282-7.023a1.119,1.119,0,0,0-.053-.734c-.888-1.969-1.806-3.926-2.7-5.891a.794.794,0,0,1,.358-1.165c.445-.2.842-.014,1.1.536.774,1.671,1.537,3.348,2.307,5.021a8.73,8.73,0,0,0,7.47,5.369,8.388,8.388,0,0,0,3.807-.56c3.986-1.474,7.977-2.933,11.957-4.424a4.037,4.037,0,0,1,3.2.029,1.127,1.127,0,0,0,1.573-.537,1.149,1.149,0,0,0-.667-1.57,5.887,5.887,0,0,0-4.6-.188c-.484.171-.961.362-1.446.53a1.337,1.337,0,0,1-1.916-1.332c-.01-1.242,0-2.484,0-3.726a4.438,4.438,0,0,0-4.582-4.56c-5.286-.007-10.572-.017-15.858.011a1.951,1.951,0,0,1-2.021-1.283c-2.429-5.355-4.891-10.7-7.342-16.04-.036-.08-.071-.162-.11-.241a1.155,1.155,0,1,0-2.1.942c.536,1.2,1.093,2.383,1.639,3.574q3.455,7.534,6.908,15.069c.34.741.274,1.2-.2,1.431-.5.243-.9,0-1.256-.783q-4.254-9.273-8.5-18.547a2.75,2.75,0,1,1,4.958-2.363c1.058,2.282,2.1,4.572,3.145,6.858q1.362,2.97,2.729,5.939c.069.151.149.3.248.492.268-1.138.479-2.21.779-3.256s.684-2.044,1.048-3.113a2.5,2.5,0,0,1-.813-4.055q-1.038-.975-2.079-1.957a2.5,2.5,0,0,1,1.383-4.44,24.259,24.259,0,0,0,9.422-3.571,8.216,8.216,0,0,1,.9-.432Zm-5.44,42.479-1.847,5.678a31.575,31.575,0,0,0,17.966-.468l-2.157-6.609c-1.576.584-3.1,1.1-4.59,1.709A10.708,10.708,0,0,1,1507.233,6867.17Zm5.947,10.427a35.582,35.582,0,0,0,14.295-2.873c1.039-.448,2.05-.967,3.052-1.494a.978.978,0,0,0,.426-1.367,1.025,1.025,0,0,0-1.369-.438c-.243.107-.47.248-.709.365-8.758,4.3-17.739,4.992-26.946,1.6-1.44-.531-2.81-1.257-4.206-1.905a1.052,1.052,0,0,0-1.548.487c-.211.553.015,1.02.668,1.372A35.014,35.014,0,0,0,1513.18,6877.6Zm-.111-50.17.138-.079c-.187-.311-.309-.719-.582-.9a1.026,1.026,0,0,0-.92.022,26.413,26.413,0,0,1-10.163,3.82c-.4.061-.772.231-.8.649a1.426,1.426,0,0,0,.3.937c.679.77,1.431,1.474,2.137,2.22a.508.508,0,0,0,.641.155c2.909-1.106,5.825-2.2,8.731-3.31a.619.619,0,0,0,.325-.436C1512.964,6829.48,1513.01,6828.453,1513.069,6827.427Zm2.025,5.477c-.022-.645-.619-.964-1.339-.694q-5.023,1.881-10.044,3.774c-.619.233-.87.686-.674,1.178s.664.642,1.3.4c.946-.351,1.889-.709,2.834-1.064q3.555-1.337,7.11-2.671C1514.729,6833.665,1515.078,6833.436,1515.094,6832.9Zm9.764,38.947c.48-.2.9-.386,1.329-.537.323-.114.377-.269.268-.595-.642-1.926-1.26-3.861-1.889-5.792a3.312,3.312,0,0,0-.158-.342l-1.707.634Zm-21.008.553c.655-2.021,1.294-3.986,1.924-5.953a.328.328,0,0,0-.059-.276c-.443-.418-.9-.821-1.386-1.262l-2.231,6.851Zm21.187-13.99,3.281-.929a2.662,2.662,0,0,0-3.281-1.838Z" fill="#fff"/>
    <path id="Path_51" data-name="Path 51" d="M1511.654,6852.034c2.359,0,4.718-.005,7.077,0a2.863,2.863,0,0,1,3.113,3.108q.006,2.528,0,5.055a1.369,1.369,0,0,1-1.067,1.563c-2.09.779-4.177,1.568-6.277,2.32a6.451,6.451,0,0,1-8.255-3.463q-1.553-3.35-3.1-6.7c-.521-1.132-.038-1.879,1.217-1.881Q1508.009,6852.031,1511.654,6852.034Zm-6.882,1.6,2.849,6.209,2.439-.873c3.246-1.164,6.489-2.335,9.742-3.482a.555.555,0,0,0,.442-.689,1.285,1.285,0,0,0-1.448-1.163q-5.474-.006-10.949,0Zm15.476,3.384-11.728,4.2a4.719,4.719,0,0,0,5.1,1.468c2.126-.722,4.222-1.535,6.325-2.325a.512.512,0,0,0,.292-.353C1520.258,6859.034,1520.248,6858.061,1520.248,6857.014Z" fill="#fff"/>
    <path id="Path_52" data-name="Path 52" d="M1511.884,6839.653a5.058,5.058,0,0,1,.578-.164.749.749,0,0,1,.911.545.719.719,0,0,1-.413.929c-.449.207-.919.371-1.384.539-.414.149-.647.419-.476.851s.52.363.9.283a4.862,4.862,0,0,1,1.648-.2,1.966,1.966,0,0,1,1.616,1.575,2.243,2.243,0,0,1-.853,2.341c.134.552.514,1.2-.32,1.562-.463.2-.713.008-1.229-.889-.161.045-.327.1-.5.136a.754.754,0,0,1-.947-.478.765.765,0,0,1,.444-1.009c.437-.19.889-.349,1.337-.514.376-.139.644-.376.5-.8-.152-.438-.491-.437-.916-.343a4.146,4.146,0,0,1-1.75.176,2.144,2.144,0,0,1-.959-3.6c.208-.215.31-.366.186-.677a.811.811,0,0,1,.373-1.164c.463-.187.854.027,1.11.6C1511.784,6839.458,1511.833,6839.55,1511.884,6839.653Z" fill="#fff"/>
  </g>
</svg>
