<svg xmlns="http://www.w3.org/2000/svg" width="17.592" height="14.333" viewBox="0 0 17.592 14.333">
  <g id="Group_62" data-name="Group 62" transform="translate(-6096.918 -3021.767)">
    <path id="Path_18" data-name="Path 18" d="M6103.741,3036.1c-.4-.2-.954-.187-1.287-.734a41.526,41.526,0,0,0-3.751-5.35,20.8,20.8,0,0,0-1.51-1.685c-.174-.165-.34-.329-.106-.578a.191.191,0,0,0-.025-.271c-.056-.064-.183-.107-.132-.214a.732.732,0,0,1,.232-.313c.215-.132.457-.219.685-.33a.515.515,0,0,1,.455,0c.229.1.461.186.691.281a.55.55,0,0,0,.5-.053.628.628,0,0,1,.673.056,11.865,11.865,0,0,1,2.332,2.216c.2.2.385.412.573.623.223.25.405.247.634-.023q1.006-1.187,2.111-2.282a41.268,41.268,0,0,1,6.463-5.2.513.513,0,0,1,.271-.116.55.55,0,0,0,.38-.151,1.025,1.025,0,0,1,.429-.189c.077-.022.153-.025.2.056a.712.712,0,0,0,.406.3.8.8,0,0,1,.546.811,1.292,1.292,0,0,1-.34.684c-.809.9-1.629,1.793-2.423,2.706a65.4,65.4,0,0,0-5.59,7.179c-.34.522-.642,1.065-.934,1.614a1.617,1.617,0,0,1-.912.789A1.173,1.173,0,0,1,6103.741,3036.1Z" fill="#009540"/>
  </g>
</svg>
